<svg width="59" height="63" viewBox="0 0 59 63" fill="none" xmlns="http://www.w3.org/2000/svg">
<rect width="59" height="63" fill="#42423C"/>
<path d="M53.2 17H16C18.7 17.7023 20.6 20.5114 20.6 23.6718V63C24.3 58.6692 26.3 52.9338 26.3 46.8473V24.8422C26.3 24.257 26.7 23.6718 27.3 23.6718C27.8 23.6718 28.3 24.1399 28.3 24.8422V54.1043C32 49.7735 34 44.0382 34 37.9517V24.8422C34 24.257 34.4 23.6718 35 23.6718C35.5 23.6718 36 24.1399 36 24.8422V45.2086L41 39.3562C41.2 39.1221 41.3 38.888 41.4 38.6539V38.5369C41.6 38.1857 41.6 37.8346 41.7 37.3664C42.2 29.7583 47.6 23.6718 54.3 23.6718H59L53.2 17Z" fill="#62643A"/>
<path d="M20.8804 22.9959C20.8804 19.1162 24.6388 16.0124 29.2325 16.0124H32.3228C34.912 16.0124 37 14.249 37 12.0622H29.2325C28.5643 12.0622 27.8962 12.1328 27.3115 12.2033C25.8916 12.3444 25.474 10.6515 26.8104 10.2988C27.5621 10.0871 28.3973 10.0166 29.2325 10.0166H32.3228C34.912 10.0166 37 8.25312 37 6.06639H29.2325C28.3973 6.06639 27.6456 6.13694 26.8939 6.27801C25.5576 6.48963 24.9729 4.86722 26.3093 4.44399C27.228 4.16183 28.2302 3.95021 29.316 3.95021H32.3228C34.912 3.95021 37 2.18672 37 0H29.316C22.1332 0 16.1196 4.86723 16.2032 10.8631C16.2867 14.8133 12.5282 17.9876 7.85102 17.9876H4.92777C2.3386 17.9876 0.250564 19.751 0.250564 21.9378H7.76749C8.60271 21.9378 9.3544 21.8672 10.1061 21.7261C11.4424 21.5145 12.0271 23.1369 10.6907 23.5602C9.77201 23.8423 8.76975 24.0539 7.68397 24.0539H4.76072C2.17156 24.0539 0.083521 25.8174 0.083521 28.0041H7.60045C8.26862 28.0041 8.93679 27.9336 9.52145 27.8631C10.9413 27.722 11.3589 29.4149 10.0226 29.7676C9.27088 29.9793 8.43567 30.0498 7.60045 30.0498H4.6772C2.08804 30.0498 0 31.8133 0 34H7.51693C15.0339 34 20.8804 29.0622 20.8804 22.9959Z" fill="#201B21"/>
</svg>
